<?xml version="1.0" encoding="utf-8"?>
<!-- Generator: Adobe Illustrator 18.0.0, SVG Export Plug-In . SVG Version: 6.00 Build 0)  -->
<!DOCTYPE svg PUBLIC "-//W3C//DTD SVG 1.1//EN" "http://www.w3.org/Graphics/SVG/1.1/DTD/svg11.dtd">
<svg version="1.1" id="Livello_1" xmlns="http://www.w3.org/2000/svg" xmlns:xlink="http://www.w3.org/1999/xlink" x="0px" y="0px"
	 viewBox="0 0 792.1 112.4" style="enable-background:new 0 0 792.1 112.4;" xml:space="preserve">
<style type="text/css">
	.st0{fill:#FFFFFF;}
</style>
<g>
	<path class="st0" d="M26,32.1c5.4-3.1,11.5-4.6,18.5-4.6c7.4,0,14,1.8,19.9,5.3c5.9,3.5,10.5,8.4,14,14.8
		c3.4,6.4,5.1,13.7,5.1,22.1c0,8.3-1.7,15.7-5.1,22.2c-3.4,6.5-8.1,11.6-14,15.2c-6,3.6-12.6,5.4-19.9,5.4c-7.1,0-13.3-1.5-18.7-4.7
		c-5.4-3.1-9.4-7-12.1-11.8V111H0V0h13.7v44.1C16.4,39.2,20.6,35.2,26,32.1z M65.7,53.4c-2.5-4.6-5.9-8.1-10.1-10.5
		c-4.3-2.4-8.9-3.6-14-3.6c-5,0-9.6,1.2-13.9,3.7c-4.3,2.5-7.6,6-10.2,10.6c-2.5,4.6-3.8,10-3.8,16.1c0,6.2,1.3,11.6,3.8,16.3
		c2.6,4.6,5.9,8.2,10.2,10.6c4.2,2.5,8.9,3.7,13.9,3.7c5.1,0,9.8-1.2,14-3.7c4.2-2.4,7.6-6,10.1-10.6c2.5-4.6,3.8-10.1,3.8-16.4
		C69.5,63.4,68.2,58,65.7,53.4z"/>
	<path class="st0" d="M175.9,75h-65.7c0.5,8.1,3.3,14.4,8.3,19c5,4.6,11.2,6.8,18.4,6.8c5.9,0,10.8-1.4,14.8-4.1
		c3.9-2.7,6.7-6.4,8.3-11h14.7c-2.2,7.9-6.6,14.3-13.2,19.3c-6.6,5-14.8,7.4-24.6,7.4c-7.8,0-14.8-1.7-20.9-5.3
		c-6.1-3.5-11-8.5-14.5-14.9c-3.5-6.4-5.3-13.9-5.3-22.4c0-8.5,1.7-15.9,5.1-22.4c3.4-6.4,8.2-11.3,14.3-14.8s13.2-5.2,21.2-5.2
		c7.8,0,14.7,1.7,20.7,5.1c6,3.4,10.6,8.1,13.9,14c3.2,6,4.9,12.7,4.9,20.2C176.4,69.4,176.2,72.1,175.9,75z M158.8,50.5
		c-2.3-3.8-5.4-6.6-9.4-8.6c-4-1.9-8.3-2.9-13.1-2.9c-6.9,0-12.8,2.2-17.6,6.6c-4.9,4.4-7.6,10.5-8.3,18.3h51.9
		C162.3,58.7,161.1,54.2,158.8,50.5z"/>
	<path class="st0" d="M258.7,36.4c6.2,6.1,9.3,14.8,9.3,26.2V111h-13.5V64.5c0-8.2-2.1-14.5-6.2-18.8c-4.1-4.3-9.7-6.5-16.8-6.5
		c-7.2,0-12.9,2.3-17.2,6.8c-4.3,4.5-6.4,11.1-6.4,19.6V111h-13.7V28.8H208v11.7c2.7-4.2,6.4-7.4,11-9.8c4.6-2.3,9.8-3.5,15.4-3.5
		C244.4,27.3,252.5,30.3,258.7,36.4z"/>
	<path class="st0" d="M321,98.4l25.5-69.6H361L328.8,111h-15.9l-32.3-82.2h14.7L321,98.4z"/>
	<path class="st0" d="M449.1,75h-65.7c0.5,8.1,3.3,14.4,8.3,19c5,4.6,11.2,6.8,18.4,6.8c5.9,0,10.8-1.4,14.8-4.1
		c3.9-2.7,6.7-6.4,8.3-11h14.7c-2.2,7.9-6.6,14.3-13.2,19.3c-6.6,5-14.8,7.4-24.6,7.4c-7.8,0-14.8-1.7-20.9-5.3
		c-6.1-3.5-11-8.5-14.5-14.9c-3.5-6.4-5.3-13.9-5.3-22.4c0-8.5,1.7-15.9,5.1-22.4c3.4-6.4,8.2-11.3,14.3-14.8
		c6.2-3.5,13.2-5.2,21.2-5.2c7.8,0,14.7,1.7,20.7,5.1c6,3.4,10.6,8.1,13.9,14c3.2,6,4.9,12.7,4.9,20.2
		C449.5,69.4,449.4,72.1,449.1,75z M432,50.5c-2.3-3.8-5.4-6.6-9.4-8.6c-4-1.9-8.3-2.9-13.1-2.9c-6.9,0-12.8,2.2-17.6,6.6
		c-4.9,4.4-7.6,10.5-8.3,18.3h51.9C435.4,58.7,434.3,54.2,432,50.5z"/>
	<path class="st0" d="M531.9,36.4c6.2,6.1,9.3,14.8,9.3,26.2V111h-13.5V64.5c0-8.2-2.1-14.5-6.2-18.8c-4.1-4.3-9.7-6.5-16.8-6.5
		c-7.2,0-12.9,2.3-17.2,6.8c-4.3,4.5-6.4,11.1-6.4,19.6V111h-13.7V28.8h13.7v11.7c2.7-4.2,6.4-7.4,11-9.8c4.7-2.3,9.8-3.5,15.4-3.5
		C517.6,27.3,525.7,30.3,531.9,36.4z"/>
	<path class="st0" d="M636.4,28.8V111h-13.7V98.9c-2.6,4.2-6.2,7.5-10.9,9.8c-4.6,2.3-9.8,3.5-15.4,3.5c-6.4,0-12.1-1.3-17.3-4
		c-5.1-2.6-9.1-6.6-12.1-11.9c-3-5.3-4.4-11.7-4.4-19.3V28.8h13.5v46.4c0,8.1,2,14.3,6.2,18.7c4.1,4.3,9.7,6.5,16.8,6.5
		c7.3,0,13-2.3,17.3-6.8c4.2-4.5,6.3-11,6.3-19.7V28.8H636.4z"/>
	<path class="st0" d="M676.2,40v48.5c0,4,0.8,6.8,2.5,8.5c1.7,1.6,4.7,2.5,8.8,2.5h10.1V111h-12.3c-7.6,0-13.3-1.7-17.1-5.3
		c-3.8-3.5-5.7-9.2-5.7-17.3V40h-10.6V28.8h10.6V8.1h13.7v20.7h21.5V40H676.2z"/>
	<path class="st0" d="M729.1,107.1c-6.3-3.5-11.2-8.5-14.7-14.9c-3.6-6.4-5.3-13.9-5.3-22.4c0-8.4,1.8-15.8,5.5-22.3
		c3.6-6.5,8.6-11.4,14.9-14.9c6.3-3.5,13.4-5.2,21.2-5.2s14.8,1.7,21.2,5.2c6.3,3.5,11.3,8.4,14.9,14.8c3.6,6.4,5.5,13.9,5.5,22.4
		c0,8.5-1.9,16-5.6,22.4c-3.8,6.5-8.8,11.4-15.2,14.9c-6.4,3.5-13.5,5.3-21.3,5.3C742.3,112.4,735.3,110.6,729.1,107.1z M763.8,96.9
		c4.3-2.3,7.8-5.7,10.4-10.4c2.6-4.6,4-10.2,4-16.8s-1.3-12.2-3.9-16.8c-2.6-4.6-6-8-10.2-10.3s-8.8-3.4-13.7-3.4
		c-5,0-9.6,1.1-13.7,3.4c-4.2,2.3-7.5,5.7-10,10.3c-2.5,4.6-3.8,10.2-3.8,16.8c0,6.7,1.2,12.4,3.7,17c2.4,4.6,5.7,8,9.8,10.3
		c4.1,2.3,8.6,3.4,13.5,3.4C754.9,100.4,759.5,99.2,763.8,96.9z"/>
</g>
</svg>
