<?xml version="1.0" encoding="utf-8"?>
<!-- Generator: Adobe Illustrator 18.0.0, SVG Export Plug-In . SVG Version: 6.00 Build 0)  -->
<!DOCTYPE svg PUBLIC "-//W3C//DTD SVG 1.1//EN" "http://www.w3.org/Graphics/SVG/1.1/DTD/svg11.dtd">
<svg version="1.1" id="Livello_1" xmlns="http://www.w3.org/2000/svg" xmlns:xlink="http://www.w3.org/1999/xlink" x="0px" y="0px"
	 viewBox="0 0 1000 1000" style="enable-background:new 0 0 1000 1000;" xml:space="preserve">
<style type="text/css">
	.st0{opacity:0.3;fill:#ffffff;}
</style>
<path class="st0" d="M-63.8,323c-3,0-5.6-1.1-7.9-3.4s-3.4-4.9-3.4-7.9v-97.5c0-3,1.1-5.6,3.4-7.9s4.9-3.4,7.9-3.4H63.8
	c3,0,5.6,1.1,7.9,3.4s3.4,4.9,3.4,7.9v97.5c0,3-1.1,5.6-3.4,7.9s-4.9,3.4-7.9,3.4H-63.8z M0,266.4l-63.8-41.8v87.2H63.8v-87.2
	L0,266.4z M0,255.1l63-40.9H-62.8L0,255.1z M-63.8,224.6v-10.3v97.5V224.6z"/>
<path class="st0" d="M936.3,323c-3,0-5.6-1.1-7.9-3.4s-3.4-4.9-3.4-7.9v-97.5c0-3,1.1-5.6,3.4-7.9s4.9-3.4,7.9-3.4h127.5
	c3,0,5.6,1.1,7.9,3.4s3.4,4.9,3.4,7.9v97.5c0,3-1.1,5.6-3.4,7.9s-4.9,3.4-7.9,3.4H936.3z M1000,266.4l-63.8-41.8v87.2h127.5v-87.2
	L1000,266.4z M1000,255.1l63-40.9H937.2L1000,255.1z M936.3,224.6v-10.3v97.5V224.6z"/>
<path class="st0" d="M-106.3,743c-5,0-9.4-1.9-13.1-5.6s-5.6-8.1-5.6-13.1V561.8c0-5,1.9-9.4,5.6-13.1s8.1-5.6,13.1-5.6h212.5
	c5,0,9.4,1.9,13.1,5.6s5.6,8.1,5.6,13.1v162.5c0,5-1.9,9.4-5.6,13.1s-8.1,5.6-13.1,5.6H-106.3z M0,648.6l-106.3-69.7v145.3h212.5
	V578.9L0,648.6z M0,629.9l105-68.1h-209.7L0,629.9z M-106.3,578.9v-17.2v162.5V578.9z"/>
<path class="st0" d="M893.8,743c-5,0-9.4-1.9-13.1-5.6s-5.6-8.1-5.6-13.1V561.8c0-5,1.9-9.4,5.6-13.1s8.1-5.6,13.1-5.6h212.5
	c5,0,9.4,1.9,13.1,5.6s5.6,8.1,5.6,13.1v162.5c0,5-1.9,9.4-5.6,13.1s-8.1,5.6-13.1,5.6H893.8z M1000,648.6l-106.3-69.7v145.3h212.5
	V578.9L1000,648.6z M1000,629.9l105-68.1H895.3L1000,629.9z M893.8,578.9v-17.2v162.5V578.9z"/>
<path class="st0" d="M392.8,100c-5,0-9.4-1.9-13.1-5.6s-5.6-8.1-5.6-13.1V-81.3c0-5,1.9-9.4,5.6-13.1s8.1-5.6,13.1-5.6h212.5
	c5,0,9.4,1.9,13.1,5.6s5.6,8.1,5.6,13.1V81.2c0,5-1.9,9.4-5.6,13.1s-8.1,5.6-13.1,5.6H392.8z M499,5.6L392.8-64.1V81.2h212.5V-64.1
	L499,5.6z M499-13.1l105-68.1H394.3L499-13.1z M392.8-64.1v-17.2V81.2V-64.1z"/>
<path class="st0" d="M431.5,564.4c-3.2,0-6-1.2-8.5-3.6c-2.4-2.4-3.6-5.2-3.6-8.5V447.6c0-3.2,1.2-6,3.6-8.5
	c2.4-2.4,5.2-3.6,8.5-3.6h136.9c3.2,0,6,1.2,8.5,3.6s3.6,5.2,3.6,8.5v104.7c0,3.2-1.2,6-3.6,8.5s-5.2,3.6-8.5,3.6H431.5z M500,503.6
	l-68.5-44.9v93.6h136.9v-93.6L500,503.6z M500,491.5l67.7-43.9H432.5L500,491.5z M431.5,458.7v-11.1v104.7V458.7z"/>
<path class="st0" d="M392.8,1100c-5,0-9.4-1.9-13.1-5.6s-5.6-8.1-5.6-13.1V918.8c0-5,1.9-9.4,5.6-13.1s8.1-5.6,13.1-5.6h212.5
	c5,0,9.4,1.9,13.1,5.6s5.6,8.1,5.6,13.1v162.5c0,5-1.9,9.4-5.6,13.1s-8.1,5.6-13.1,5.6H392.8z M499,1005.6l-106.3-69.7v145.3h212.5
	V935.9L499,1005.6z M499,986.9l105-68.1H394.3L499,986.9z M392.8,935.9v-17.2v162.5V935.9z"/>
</svg>
