<?xml version="1.0" encoding="utf-8"?>
<!-- Generator: Adobe Illustrator 18.0.0, SVG Export Plug-In . SVG Version: 6.00 Build 0)  -->
<!DOCTYPE svg PUBLIC "-//W3C//DTD SVG 1.1//EN" "http://www.w3.org/Graphics/SVG/1.1/DTD/svg11.dtd">
<svg version="1.1" xmlns="http://www.w3.org/2000/svg" xmlns:xlink="http://www.w3.org/1999/xlink" x="0px" y="0px"
	 viewBox="0 0 1000 1000" style="enable-background:new 0 0 1000 1000;" xml:space="preserve">
<style type="text/css">
	.st0{display:none;}
	.st1{display:inline;opacity:0.3;fill:#ffffff;}
	.st2{opacity:0.3;fill:#ffffff;}
</style>
<g id="Livello_1" class="st0">
	<path class="st1" d="M-63.8,330c-3,0-5.6-1.1-7.9-3.4s-3.4-4.9-3.4-7.9v-97.5c0-3,1.1-5.6,3.4-7.9s4.9-3.4,7.9-3.4H63.8
		c3,0,5.6,1.1,7.9,3.4s3.4,4.9,3.4,7.9v97.5c0,3-1.1,5.6-3.4,7.9s-4.9,3.4-7.9,3.4H-63.8z M0,273.4l-63.8-41.8v87.2H63.8v-87.2
		L0,273.4z M0,262.1l63-40.9H-62.8L0,262.1z M-63.8,231.6v-10.3v97.5V231.6z"/>
	<path class="st1" d="M936.3,330c-3,0-5.6-1.1-7.9-3.4s-3.4-4.9-3.4-7.9v-97.5c0-3,1.1-5.6,3.4-7.9s4.9-3.4,7.9-3.4h127.5
		c3,0,5.6,1.1,7.9,3.4s3.4,4.9,3.4,7.9v97.5c0,3-1.1,5.6-3.4,7.9s-4.9,3.4-7.9,3.4H936.3z M1000,273.4l-63.8-41.8v87.2h127.5v-87.2
		L1000,273.4z M1000,262.1l63-40.9H937.2L1000,262.1z M936.3,231.6v-10.3v97.5V231.6z"/>
	<path class="st1" d="M-106.3,750c-5,0-9.4-1.9-13.1-5.6s-5.6-8.1-5.6-13.1V568.8c0-5,1.9-9.4,5.6-13.1s8.1-5.6,13.1-5.6h212.5
		c5,0,9.4,1.9,13.1,5.6s5.6,8.1,5.6,13.1v162.5c0,5-1.9,9.4-5.6,13.1s-8.1,5.6-13.1,5.6H-106.3z M0,655.6l-106.3-69.7v145.3h212.5
		V585.9L0,655.6z M0,636.9l105-68.1h-209.7L0,636.9z M-106.3,585.9v-17.2v162.5V585.9z"/>
	<path class="st1" d="M893.8,750c-5,0-9.4-1.9-13.1-5.6s-5.6-8.1-5.6-13.1V568.8c0-5,1.9-9.4,5.6-13.1s8.1-5.6,13.1-5.6h212.5
		c5,0,9.4,1.9,13.1,5.6s5.6,8.1,5.6,13.1v162.5c0,5-1.9,9.4-5.6,13.1s-8.1,5.6-13.1,5.6H893.8z M1000,655.6l-106.3-69.7v145.3h212.5
		V585.9L1000,655.6z M1000,636.9l105-68.1H895.3L1000,636.9z M893.8,585.9v-17.2v162.5V585.9z"/>
	<path class="st1" d="M392.8,100c-5,0-9.4-1.9-13.1-5.6s-5.6-8.1-5.6-13.1V-81.3c0-5,1.9-9.4,5.6-13.1s8.1-5.6,13.1-5.6h212.5
		c5,0,9.4,1.9,13.1,5.6s5.6,8.1,5.6,13.1V81.2c0,5-1.9,9.4-5.6,13.1s-8.1,5.6-13.1,5.6H392.8z M499,5.6L392.8-64.1V81.2h212.5V-64.1
		L499,5.6z M499-13.1l105-68.1H394.3L499-13.1z M392.8-64.1v-17.2V81.2V-64.1z"/>
	<path class="st1" d="M431.5,564.4c-3.2,0-6-1.2-8.5-3.6c-2.4-2.4-3.6-5.2-3.6-8.5V447.6c0-3.2,1.2-6,3.6-8.5
		c2.4-2.4,5.2-3.6,8.5-3.6h136.9c3.2,0,6,1.2,8.5,3.6s3.6,5.2,3.6,8.5v104.7c0,3.2-1.2,6-3.6,8.5s-5.2,3.6-8.5,3.6H431.5z
		 M500,503.6l-68.5-44.9v93.6h136.9v-93.6L500,503.6z M500,491.5l67.7-43.9H432.5L500,491.5z M431.5,458.7v-11.1v104.7V458.7z"/>
	<path class="st1" d="M392.8,1100c-5,0-9.4-1.9-13.1-5.6s-5.6-8.1-5.6-13.1V918.8c0-5,1.9-9.4,5.6-13.1s8.1-5.6,13.1-5.6h212.5
		c5,0,9.4,1.9,13.1,5.6s5.6,8.1,5.6,13.1v162.5c0,5-1.9,9.4-5.6,13.1s-8.1,5.6-13.1,5.6H392.8z M499,1005.6l-106.3-69.7v145.3h212.5
		V935.9L499,1005.6z M499,986.9l105-68.1H394.3L499,986.9z M392.8,935.9v-17.2v162.5V935.9z"/>
</g>
<g id="Livello_2">
	<path class="st2" d="M587.6-88.7C564.2-112.1,533-125,499.9-125c-68.3,0-123.9,55.6-123.9,123.9c0,21.8,5.7,43.1,16.5,61.9L375,125
		l65.7-17.2c18.1,9.9,38.4,15.1,59.2,15.1h0.1C568.2,122.8,625,67.2,625-1.1C625-34.2,610.9-65.2,587.6-88.7L587.6-88.7z M499.9,102
		c-18.5,0-36.7-5-52.5-14.3l-3.7-2.2l-39,10.2l10.4-38l-2.5-3.9C402.4,37.3,397,18.4,397-1.1c0-56.8,46.2-103,103-103
		c27.5,0,53.3,10.7,72.8,30.2c19.4,19.5,31.4,45.3,31.3,72.8C604.1,55.7,556.7,102,499.9,102z M556.4,24.8c-3.1-1.6-18.3-9-21.1-10
		c-2.8-1.1-4.9-1.6-7,1.6c-2.1,3.1-8,10-9.8,12.2c-1.8,2.1-3.6,2.3-6.7,0.8c-18.2-9.1-30.1-16.2-42.1-36.8
		c-3.2-5.5,3.2-5.1,9.1-16.9c1-2.1,0.5-3.9-0.3-5.4s-7-16.8-9.5-23c-2.5-6-5.1-5.2-7-5.3c-1.8-0.1-3.9-0.1-5.9-0.1s-5.4,0.8-8.3,3.9
		c-2.8,3.1-10.8,10.6-10.8,25.8s11.1,30,12.6,32c1.6,2.1,21.8,33.3,52.9,46.8c19.6,8.5,27.3,9.2,37.2,7.8c6-0.9,18.3-7.5,20.9-14.7
		c2.6-7.3,2.6-13.4,1.8-14.7C561.6,27.1,559.5,26.3,556.4,24.8z"/>
	<path class="st2" d="M587.6,911.3C564.2,887.9,533,875,499.9,875c-68.3,0-123.9,55.6-123.9,123.9c0,21.8,5.7,43.1,16.5,61.9
		L375,1125l65.7-17.2c18.1,9.9,38.4,15.1,59.2,15.1h0.1c68.2,0,125.1-55.6,125.1-123.9C625,965.8,610.9,934.8,587.6,911.3
		L587.6,911.3z M499.9,1102c-18.5,0-36.7-5-52.5-14.3l-3.7-2.2l-39,10.2l10.4-38l-2.5-3.9c-10.3-16.4-15.7-35.3-15.7-54.8
		c0-56.8,46.2-103,103-103c27.5,0,53.3,10.7,72.8,30.2c19.4,19.5,31.4,45.3,31.3,72.8C604.1,1055.7,556.7,1102,499.9,1102z
		 M556.4,1024.8c-3.1-1.6-18.3-9-21.1-10c-2.8-1.1-4.9-1.6-7,1.6c-2.1,3.1-8,10-9.8,12.2c-1.8,2.1-3.6,2.3-6.7,0.8
		c-18.2-9.1-30.1-16.2-42.1-36.8c-3.2-5.5,3.2-5.1,9.1-16.9c1-2.1,0.5-3.9-0.3-5.4s-7-16.8-9.5-23c-2.5-6-5.1-5.2-7-5.3
		c-1.8-0.1-3.9-0.1-5.9-0.1s-5.4,0.8-8.3,3.9c-2.8,3.1-10.8,10.6-10.8,25.8s11.1,30,12.6,32c1.6,2.1,21.8,33.3,52.9,46.8
		c19.6,8.5,27.3,9.2,37.2,7.8c6-0.9,18.3-7.5,20.9-14.7c2.6-7.3,2.6-13.4,1.8-14.7C561.6,1027.1,559.5,1026.3,556.4,1024.8z"/>
	<path class="st2" d="M87.6,561.3C64.2,537.9,33,525-0.1,525c-68.3,0-123.9,55.6-123.9,123.9c0,21.8,5.7,43.1,16.5,61.9L-125,775
		l65.7-17.2c18.1,9.9,38.4,15.1,59.2,15.1h0.1c68.2,0,125.1-55.6,125.1-123.9C125,615.8,110.9,584.8,87.6,561.3L87.6,561.3z
		 M-0.1,752c-18.5,0-36.7-5-52.5-14.3l-3.7-2.2l-39,10.2l10.4-38l-2.5-3.9c-10.3-16.4-15.7-35.3-15.7-54.8c0-56.8,46.2-103,103-103
		c27.5,0,53.3,10.7,72.8,30.2s31.4,45.3,31.3,72.8C104.1,705.7,56.7,752-0.1,752z M56.4,674.8c-3.1-1.6-18.3-9-21.1-10
		c-2.8-1.1-4.9-1.6-7,1.6s-8,10-9.8,12.2c-1.8,2.1-3.6,2.3-6.7,0.8c-18.2-9.1-30.1-16.2-42.1-36.8c-3.2-5.5,3.2-5.1,9.1-16.9
		c1-2.1,0.5-3.9-0.3-5.4c-0.8-1.6-7-16.8-9.5-23c-2.5-6-5.1-5.2-7-5.3c-1.8-0.1-3.9-0.1-5.9-0.1c-2.1,0-5.4,0.8-8.3,3.9
		c-2.8,3.1-10.8,10.6-10.8,25.8s11.1,30,12.6,32c1.6,2.1,21.8,33.3,52.9,46.8c19.6,8.5,27.3,9.2,37.2,7.8c6-0.9,18.3-7.5,20.9-14.7
		c2.6-7.3,2.6-13.4,1.8-14.7C61.6,677.1,59.5,676.3,56.4,674.8z"/>
	<path class="st2" d="M1052.5,216.8c-14-14.1-32.7-21.8-52.6-21.8c-41,0-74.3,33.3-74.3,74.3c0,13.1,3.4,25.9,9.9,37.2L925,345
		l39.4-10.3c10.8,5.9,23.1,9,35.5,9h0c40.9,0,75-33.3,75-74.3C1075,249.5,1066.6,230.9,1052.5,216.8L1052.5,216.8z M1000,331.2
		c-11.1,0-22-3-31.5-8.6l-2.2-1.3l-23.4,6.1l6.2-22.8l-1.5-2.3c-6.2-9.8-9.4-21.2-9.4-32.9c0-34.1,27.7-61.8,61.8-61.8
		c16.5,0,32,6.4,43.7,18.1c11.7,11.7,18.8,27.2,18.8,43.7C1062.4,303.4,1034,331.2,1000,331.2z M1033.9,284.9
		c-1.8-0.9-11-5.4-12.7-6c-1.7-0.6-2.9-0.9-4.2,0.9c-1.2,1.9-4.8,6-5.9,7.3c-1.1,1.2-2.2,1.4-4,0.5c-10.9-5.5-18.1-9.7-25.3-22.1
		c-1.9-3.3,1.9-3,5.5-10.1c0.6-1.2,0.3-2.3-0.2-3.2c-0.5-0.9-4.2-10.1-5.7-13.8c-1.5-3.6-3-3.1-4.2-3.2c-1.1-0.1-2.3-0.1-3.5-0.1
		c-1.2,0-3.2,0.5-5,2.3c-1.7,1.9-6.5,6.4-6.5,15.5c0,9.1,6.7,18,7.6,19.2c0.9,1.2,13.1,20,31.7,28.1c11.8,5.1,16.4,5.5,22.3,4.7
		c3.6-0.5,11-4.5,12.5-8.8c1.5-4.4,1.5-8.1,1.1-8.8C1036.9,286.3,1035.7,285.8,1033.9,284.9z"/>
	<path class="st2" d="M552.5,446.8c-14-14.1-32.7-21.8-52.6-21.8c-41,0-74.3,33.3-74.3,74.3c0,13.1,3.4,25.9,9.9,37.2L425,575
		l39.4-10.3c10.8,5.9,23.1,9,35.5,9h0c40.9,0,75-33.3,75-74.3C575,479.5,566.6,460.9,552.5,446.8L552.5,446.8z M500,561.2
		c-11.1,0-22-3-31.5-8.6l-2.2-1.3l-23.4,6.1l6.2-22.8l-1.5-2.3c-6.2-9.8-9.4-21.2-9.4-32.9c0-34.1,27.7-61.8,61.8-61.8
		c16.5,0,32,6.4,43.7,18.1s18.8,27.2,18.8,43.7C562.4,533.4,534,561.2,500,561.2z M533.9,514.9c-1.8-0.9-11-5.4-12.7-6
		c-1.7-0.6-2.9-0.9-4.2,0.9c-1.2,1.9-4.8,6-5.9,7.3c-1.1,1.2-2.2,1.4-4,0.5c-10.9-5.5-18.1-9.7-25.3-22.1c-1.9-3.3,1.9-3,5.5-10.1
		c0.6-1.2,0.3-2.3-0.2-3.2s-4.2-10.1-5.7-13.8c-1.5-3.6-3-3.1-4.2-3.2c-1.1-0.1-2.3-0.1-3.5-0.1s-3.2,0.5-5,2.3
		c-1.7,1.9-6.5,6.4-6.5,15.5s6.7,18,7.6,19.2c0.9,1.2,13.1,20,31.7,28.1c11.8,5.1,16.4,5.5,22.3,4.7c3.6-0.5,11-4.5,12.5-8.8
		c1.5-4.4,1.5-8.1,1.1-8.8C536.9,516.3,535.7,515.8,533.9,514.9z"/>
	<path class="st2" d="M52.5,216.8C38.5,202.7,19.8,195,0,195c-41,0-74.3,33.3-74.3,74.3c0,13.1,3.4,25.9,9.9,37.2L-75,345l39.4-10.3
		c10.8,5.9,23.1,9,35.5,9h0c40.9,0,75-33.3,75-74.3C75,249.5,66.6,230.9,52.5,216.8L52.5,216.8z M0,331.2c-11.1,0-22-3-31.5-8.6
		l-2.2-1.3l-23.4,6.1l6.2-22.8l-1.5-2.3c-6.2-9.8-9.4-21.2-9.4-32.9c0-34.1,27.7-61.8,61.8-61.8c16.5,0,32,6.4,43.7,18.1
		s18.8,27.2,18.8,43.7C62.4,303.4,34,331.2,0,331.2z M33.9,284.9c-1.8-0.9-11-5.4-12.7-6c-1.7-0.6-2.9-0.9-4.2,0.9
		c-1.2,1.9-4.8,6-5.9,7.3c-1.1,1.2-2.2,1.4-4,0.5c-10.9-5.5-18.1-9.7-25.3-22.1c-1.9-3.3,1.9-3,5.5-10.1c0.6-1.2,0.3-2.3-0.2-3.2
		c-0.5-0.9-4.2-10.1-5.7-13.8c-1.5-3.6-3-3.1-4.2-3.2c-1.1-0.1-2.3-0.1-3.5-0.1c-1.2,0-3.2,0.5-5,2.3c-1.7,1.9-6.5,6.4-6.5,15.5
		c0,9.1,6.7,18,7.6,19.2c0.9,1.2,13.1,20,31.7,28.1c11.8,5.1,16.4,5.5,22.3,4.7c3.6-0.5,11-4.5,12.5-8.8c1.5-4.4,1.5-8.1,1.1-8.8
		C36.9,286.3,35.7,285.8,33.9,284.9z"/>
	<path class="st2" d="M1087.6,561.3c-23.4-23.4-54.5-36.3-87.6-36.3c-68.3,0-123.9,55.6-123.9,123.9c0,21.8,5.7,43.1,16.5,61.9
		L875,775l65.7-17.2c18.1,9.9,38.4,15.1,59.2,15.1h0.1c68.2,0,125.1-55.6,125.1-123.9C1125,615.8,1110.9,584.8,1087.6,561.3
		L1087.6,561.3z M999.9,752c-18.5,0-36.7-5-52.5-14.3l-3.7-2.2l-39,10.2l10.4-38l-2.5-3.9c-10.3-16.4-15.7-35.3-15.7-54.8
		c0-56.8,46.2-103,103-103c27.5,0,53.3,10.7,72.8,30.2c19.4,19.5,31.4,45.3,31.3,72.8C1104.1,705.7,1056.7,752,999.9,752z
		 M1056.4,674.8c-3.1-1.6-18.3-9-21.1-10c-2.8-1.1-4.9-1.6-7,1.6c-2.1,3.1-8,10-9.8,12.2c-1.8,2.1-3.6,2.3-6.7,0.8
		c-18.2-9.1-30.1-16.2-42.1-36.8c-3.2-5.5,3.2-5.1,9.1-16.9c1-2.1,0.5-3.9-0.3-5.4c-0.8-1.6-7-16.8-9.5-23c-2.5-6-5.1-5.2-7-5.3
		c-1.8-0.1-3.9-0.1-5.9-0.1c-2.1,0-5.4,0.8-8.3,3.9c-2.8,3.1-10.8,10.6-10.8,25.8s11.1,30,12.6,32c1.6,2.1,21.8,33.3,52.9,46.8
		c19.6,8.5,27.3,9.2,37.2,7.8c6-0.9,18.3-7.5,20.9-14.7c2.6-7.3,2.6-13.4,1.8-14.7C1061.6,677.1,1059.5,676.3,1056.4,674.8z"/>
</g>
</svg>
